<mxfile host="app.diagrams.net" modified="2023-11-27T17:16:36.273Z" agent="Mozilla/5.0 (Macintosh; Intel Mac OS X 10_15_7) AppleWebKit/605.1.15 (KHTML, like Gecko) Version/17.1 Safari/605.1.15" version="22.1.4" etag="LK8FOIpfH9P5P25s6tNM" type="github">
  <diagram name="Page-1" id="ABUVsLZLczWab92c-XS6">
    <mxGraphModel>
      <root>
        <mxCell id="0" />
        <mxCell id="1" parent="0" />
      </root>
    </mxGraphModel>
  </diagram>
</mxfile>
